<svg id="Layer_1" data-name="Layer 1" xmlns="http://www.w3.org/2000/svg" viewBox="0 0 1200 1200"><defs><style>.cls-1{fill:#e9e8e8;}.cls-2{fill:#fff;}.cls-3{fill:none;stroke:#1d252e;stroke-linecap:round;stroke-width:4px;}.cls-4{fill:#9dd5c0;}.cls-5{fill:#1d252e;}</style></defs><path id="Oval" class="cls-1" d="M600,914.5c165.41,0,299.5-210.66,299.5-359.5S765.41,285.5,600,285.5,300.5,406.16,300.5,555,434.59,914.5,600,914.5Z"/><path id="Path-94" class="cls-2" d="M682,701.27l129.55,155Q830,872,827.6,879.07q-2.29,6.9-65.69,79.11a2,2,0,0,1-3.41-1.48l8.66-86.57L618.87,708.47V696.84l60.67-12.22Z"/><path id="Path-94-2" data-name="Path-94" class="cls-3" d="M618.87,708.47,767.16,870.13,758.5,956.7a2,2,0,0,0,3.41,1.48Q825.3,886,827.6,879.07,830,872,811.5,856.3L682,701.27"/><path id="Path-93" class="cls-2" d="M448.47,335.13c-7.57,2.08-62.18-15-126.48-44.7l-12.58,1.3q-26.88-18.18-29.54-22.18c-2.67-4,23.86-10.18,31.42-9.68q7.54.5,23.92,9.71L466.4,304.22Z"/><polygon class="cls-4" points="809.57 326.52 830.13 326.08 872.61 342.8 875.33 470.08 870.6 471.26 851.69 475.98 826.18 468.66 801.33 422.19 809.57 326.52"/><polyline class="cls-3" points="811.61 331.69 835.09 353.55 827.87 460.01"/><line class="cls-3" x1="835.09" y1="353.55" x2="858.42" y2="353.55"/><polyline class="cls-4" points="923.74 452.84 889.36 455.07 889.36 455.07 855.28 346.68 855.28 346.68 855.28 346.68 855.28 346.68 855.28 346.68 960.68 288.21 967.32 290.41 980.4 288.99 1035.53 394.11 923.74 452.84 923.74 452.84 923.74 452.84"/><polygon class="cls-4" points="918.77 251.25 918.77 251.25 918.77 251.25 928.97 242 938.69 227.32 1037.48 265.96 1050.21 347.03 1050.21 347.03 1050.21 347.03 1040.86 361.92 1023.11 390.19 1023.1 390.19 925.5 339.83 925.5 339.83 925.5 339.83 925.5 339.83 925.5 339.83 925.5 339.83 918.77 251.25"/><path class="cls-3" d="M898.36,298.14a283,283,0,0,0,26.21,22.51"/><path class="cls-3" d="M960.22,280.1s-83-36.47-84.68-15.88"/><line class="cls-3" x1="907.9" y1="291.76" x2="922.92" y2="296.93"/><path class="cls-3" d="M962.78,259.3s-88.65-20.24-87.51,2.75a14.46,14.46,0,0,0,.27,2.17"/><path id="Path-93-2" data-name="Path-93" class="cls-2" d="M751.86,340.11c7.56,2.08,61.85-15,126.15-44.7l12.3,1.71s28.05-19.93,29.82-22.59c2.67-4-23.86-10.18-31.42-9.68q-7.55.5-23.92,9.7L738.52,308.31"/><path id="Path-93-3" data-name="Path-93" class="cls-3" d="M761.17,338.9c8.57-1.76,52.54-13.77,116.84-43.49l12.3,1.71s28.05-19.93,29.82-22.59c2.67-4-23.86-10.18-31.42-9.68q-7.55.5-23.92,9.7L748.1,305.35"/><polyline class="cls-3" points="948.53 242.96 956.61 300.84 1041.59 342.8"/><polyline class="cls-3" points="956.61 300.84 931.48 333.63 1023.62 379.37"/><polyline class="cls-3" points="922.65 446.34 888.16 346.64 862.41 349.53"/><line class="cls-3" x1="888.16" y1="346.64" x2="920.5" y2="331.16"/><path class="cls-3" d="M888.16,328.44c-4-12.89-8-26.13-8-26.13"/><path class="cls-3" d="M871.19,265.45c.75-10.73,11-20,27.17-.63"/><line class="cls-3" x1="910.39" y1="289.28" x2="927.15" y2="326.08"/><line class="cls-3" x1="852.07" y1="313.29" x2="854.45" y2="331.69"/><path class="cls-3" d="M820.65,340.11s-11.7-71.67,11.54-62.85"/><path id="Path-96" class="cls-2" d="M600.77,713.91l60.08,261.84-81.09,58.94a1.92,1.92,0,0,1-1.81.21,2,2,0,0,1-1.1-2.53l28.71-73.14L549.13,720.09V696.24l50.09-2.41Z"/><path id="Path-96-2" data-name="Path-96" class="cls-3" d="M600.77,713.91l60.08,261.84-81.09,58.94a1.92,1.92,0,0,1-1.81.21,2,2,0,0,1-1.1-2.53l28.71-73.14L549.13,720.09"/><path id="Path-102" class="cls-5" d="M565.75,208.34q-3.91-16.76,2.87-25.89c6.79-9.13,22.92-20.63,45.39-16.69s39.25,24.89,43.06,47.35q3.81,22.47-6.31,47.46-6.35,8-13,7.74c-6.61-.26-19.86-4.18-24.13-9.17Q609.41,254.15,565.75,208.34Z"/><polygon id="Path-103" class="cls-2" points="568.65 208.45 561.91 224.55 563.16 243.67 572.16 257.83 582.3 264.68 581.38 289.56 581.99 302.57 556.09 304.99 564.6 323.27 616.98 338.07 637.92 314.91 636.02 305.5 612.27 301.12 611.65 265.81 622 253.27 627.1 241.12 635.48 240.53 638.54 227.5 632.87 220.6 621.96 217.83 615.38 205.47 617.23 195.4 586.86 209.15 568.65 208.45"/><path id="Path-105" class="cls-5" d="M636.68,275.92c1.58.88,4.38,1,8.4.32s7.34-3.08,10-7.27q4.94.19,9.45,10c4.51,9.79,1,21.76,4.75,28.28q3.75,6.52,12.31,12.29-29,2.37-38.37-14.31T636.68,275.92Z"/><polygon class="cls-4" points="390.43 321.54 369.87 321.1 327.39 337.82 324.67 465.1 329.4 466.28 348.31 471.01 373.82 463.68 398.67 417.22 390.43 321.54"/><polyline class="cls-3" points="388.39 326.71 364.91 348.57 372.13 455.04"/><line class="cls-3" x1="364.91" y1="348.57" x2="341.58" y2="348.57"/><polyline class="cls-4" points="276.26 447.86 310.64 450.09 310.64 450.1 344.72 341.7 344.72 341.7 344.72 341.7 344.72 341.7 344.72 341.7 239.32 283.23 232.68 285.44 219.6 284.01 164.47 389.13 276.26 447.86 276.26 447.87 276.26 447.86"/><polygon class="cls-4" points="281.23 246.27 281.23 246.27 281.23 246.27 271.04 237.03 261.31 222.35 162.52 260.99 149.79 342.05 149.79 342.05 149.79 342.05 159.14 356.94 176.89 385.21 176.9 385.22 274.5 334.86 274.5 334.86 274.5 334.86 274.5 334.86 274.5 334.86 274.5 334.86 281.23 246.27"/><path class="cls-3" d="M301.64,293.16a283,283,0,0,1-26.21,22.51"/><path class="cls-3" d="M239.78,275.13s83-36.48,84.68-15.89"/><line class="cls-3" x1="292.1" y1="286.79" x2="277.08" y2="291.96"/><path class="cls-3" d="M237.22,254.32s88.65-20.23,87.51,2.76a14.17,14.17,0,0,1-.27,2.16"/><path id="Path-89" class="cls-5" d="M528.06,509.16q-11.55,100.41-13.17,141.41T514,701.23q124.19.59,153.09-6.63t47.65-21.93q-36.28-141-55.34-175.18T528.06,509.16Z"/><path id="Path-88" class="cls-4" d="M557.85,302.73c1.57,8.26,17.57,20.28,35.55,20s31.13-5.67,43.82-20.29c20.11.86,39.36,3.35,61.25.81,19.38-5.63-43.37,99.56-43.37,99.56L670.71,523c-43-11.22-82,7.32-144.61,3.38l3.43-122s-41.62-94.95-31.78-106.66C520.56,303.26,550,302.29,557.85,302.73Z"/><path class="cls-4" d="M439.86,349.62q6.5-17.21,12.66-30.64a118.35,118.35,0,0,0,8.83-27.93s50.32,8.7,62.06,12.17S555,358.68,558,379.16q-29.12,3.6-49.64-1.72Q487.43,372,439.86,349.62Z"/><path id="Path-93-4" data-name="Path-93" class="cls-3" d="M438.29,333.93c-9.89-2.35-52-13.78-116.3-43.5l-12.58,1.3q-26.88-18.18-29.54-22.18c-2.67-4,23.86-10.18,31.42-9.68q7.54.5,23.92,9.71l116.65,30.8"/><path id="Path-86" class="cls-3" d="M568.65,208.45a44.54,44.54,0,0,0-6.32,31.83q2.89,16.92,21.09,24.38L582,302.57l-17.67,1.1"/><path id="Path-87" class="cls-3" d="M569.3,207.29q4,3.06,16.31.63t31.62-12.52a19.94,19.94,0,0,0-.53,13.72,18.93,18.93,0,0,0,7.65,10.54q10.5-2.25,13,6c2.55,8.2-.45,14.76-3.21,15.78-1.85.69-4.21.59-7.09-.27q-.09,6.21-6.28,14t-9.05,8.45s-.33,29.88.5,37.5l17,3"/><path id="Path-98" class="cls-3" d="M580.12,263.11a21.24,21.24,0,0,0,7.82,2.94,35.19,35.19,0,0,0,12.35,0"/><path id="Path-104" class="cls-3" d="M636.1,271.66a11.08,11.08,0,0,0,6.44.25q3.9-.8,8.82-6.06"/><polyline class="cls-3" points="251.47 237.99 243.39 295.87 158.41 337.82"/><polyline class="cls-3" points="243.39 295.87 268.52 328.65 176.38 374.4"/><polyline class="cls-3" points="277.35 441.36 311.84 341.67 337.59 344.56"/><line class="cls-3" x1="311.84" y1="341.66" x2="279.5" y2="326.19"/><path class="cls-3" d="M311.84,323.46c4.05-12.89,8.05-26.12,8.05-26.12"/><path class="cls-3" d="M328.81,260.48c-.75-10.73-11.05-20-27.17-.64"/><line class="cls-3" x1="289.61" y1="284.31" x2="272.85" y2="321.1"/><line class="cls-3" x1="347.93" y1="308.31" x2="345.55" y2="326.71"/><path class="cls-3" d="M379.35,335.13s11.7-71.66-11.54-62.84"/><path class="cls-4" d="M760.14,354.6q-6.5-17.22-12.66-30.64A118.42,118.42,0,0,1,738.65,296s-50.32,8.71-62.06,12.17S645,363.66,642,384.14q29.12,3.58,49.64-1.72Q712.57,377,760.14,354.6Z"/><path class="cls-3" d="M531.82,341.66c-9,11.09-17.94,24.9-12.64,37.88s10.56,17.4,9.82,43.75"/><path class="cls-3" d="M595.16,417.39a33.14,33.14,0,0,0,32.33,7.94"/><path class="cls-3" d="M668.62,379.37c-4.61,8.12-13.52,23.44-13.52,23.44l3.51,27.08"/></svg>